<svg width="63" height="63" viewBox="0 0 63 63" fill="none" xmlns="http://www.w3.org/2000/svg">
<path d="M49.316 10.3823H12.9779C10.9127 10.3823 8.93214 11.2027 7.47184 12.663C6.01155 14.1233 5.19116 16.1039 5.19116 18.1691V44.1248C5.19116 46.19 6.01155 48.1706 7.47184 49.6309C8.93214 51.0912 10.9127 51.9116 12.9779 51.9116H49.316C51.3812 51.9116 53.3618 51.0912 54.822 49.6309C56.2823 48.1706 57.1027 46.19 57.1027 44.1248V18.1691C57.1027 16.1039 56.2823 14.1233 54.822 12.663C53.3618 11.2027 51.3812 10.3823 49.316 10.3823ZM47.577 15.5735L31.1469 27.9025L14.7169 15.5735H47.577ZM49.316 46.7204H12.9779C12.2895 46.7204 11.6293 46.447 11.1425 45.9602C10.6558 45.4734 10.3823 44.8132 10.3823 44.1248V18.818L29.5896 33.2234C30.0389 33.5604 30.5853 33.7425 31.1469 33.7425C31.7086 33.7425 32.255 33.5604 32.7043 33.2234L51.9116 18.818V44.1248C51.9116 44.8132 51.6381 45.4734 51.1513 45.9602C50.6646 46.447 50.0044 46.7204 49.316 46.7204Z" fill="#231F20"/>
</svg>
